<?xml version="1.0" standalone="no"?>
<!DOCTYPE svg PUBLIC "-//W3C//DTD SVG 20010904//EN"
 "http://www.w3.org/TR/2001/REC-SVG-20010904/DTD/svg10.dtd">
<svg version="1.0" xmlns="http://www.w3.org/2000/svg"
 width="228.000000pt" height="228.000000pt" viewBox="0 0 228.000000 228.000000"
 preserveAspectRatio="xMidYMid meet">
<metadata>
Created by potrace 1.14, written by Peter Selinger 2001-2017
</metadata>
<g transform="translate(0.000000,228.000000) scale(0.100000,-0.100000)"
fill="#000000" stroke="none">
<path d="M998 2004 c-2 -2 -22 -6 -43 -10 -351 -55 -656 -366 -713 -724 -9
-59 -9 -233 0 -287 28 -165 118 -341 237 -463 95 -97 243 -188 376 -229 94
-30 141 -36 265 -36 130 0 176 7 276 40 565 186 791 845 457 1332 -125 183
-325 313 -564 369 -28 7 -286 14 -291 8z"/>
</g>
</svg>
